<?xml version="1.0" encoding="UTF-8"?>
<svg width="60px" height="60px" viewBox="0 0 60 60" version="1.1" xmlns="http://www.w3.org/2000/svg" xmlns:xlink="http://www.w3.org/1999/xlink">
    <!-- Generator: Sketch 51.3 (57544) - http://www.bohemiancoding.com/sketch -->
    <title>support/booking-commerce</title>
    <desc>Created with Sketch.</desc>
    <defs></defs>
    <g id="Documentation" stroke="none" stroke-width="1" fill="none" fill-rule="evenodd">
        <g id="Description" transform="translate(-291.000000, -4223.000000)">
            <g id="9" transform="translate(271.000000, 4135.000000)">
                <g id="Support" transform="translate(0.000000, 67.000000)">
                    <g id="Booking-commerce" transform="translate(20.000000, 21.000000)">
                        <g id="support/booking-commerce">
                            <circle id="Oval" fill="#E9E9E9" cx="30" cy="30" r="30"></circle>
                            <rect id="bg-top-half-f" fill="#777777" fill-rule="nonzero" x="20" y="20" width="21" height="10"></rect>
                            <rect id="bg-bottom-half-f" fill="#6C6C6C" fill-rule="nonzero" x="20" y="30" width="21" height="11"></rect>
                            <path d="M45.991,32 L43.991,29 L44.991,29 L44.991,18.988 C44.9912653,18.1993381 44.6781565,17.442887 44.1205821,16.8851251 C43.5630077,16.3273631 42.8066619,16.014 42.018,16.014 L18.976,16.014 C18.1868184,16.0132036 17.4297016,16.3262152 16.8714781,16.8840635 C16.3132546,17.4419118 15.9997341,18.1988181 16,18.988 L16,20 C16,20.5522847 15.5522847,21 15,21 C14.4477153,21 14,20.5522847 14,20 C14,20 14,19.995 14,19.992 L14,17.836 C13.9999999,16.8182829 14.4044232,15.8422781 15.1242454,15.122831 C15.8440676,14.403384 16.8202831,13.9994694 17.838,14 L43.155,14 C45.2735643,14 46.991,15.7174357 46.991,17.836 L46.991,29 L47.991,29 L45.991,32 Z M40,17 L40,18 L41,18 C42.1045695,18 43,18.8954305 43,20 L43,41 C43,42.1045695 42.1045695,43 41,43 L20,43 C18.8954305,43 18,42.1045695 18,41 L18,20 C18,18.8954305 18.8954305,18 20,18 L21,18 L21,17 L25,17 L25,18 L36,18 L36,17 L40,17 Z M25,20 L20,20 L20,41 L41,41 L41,20 L25,20 Z M17,31.991 L16,31.991 L16,42.034 C15.9997347,42.8226619 16.3128435,43.579113 16.8704179,44.1368749 C17.4279923,44.6946369 18.1843381,45.008 18.973,45.008 L42.017,45.008 C42.8056619,45.008 43.5620077,44.6946369 44.1195821,44.1368749 C44.6771565,43.579113 44.9902653,42.8226619 44.99,42.034 L44.99,41 L45,41 C45,40.4477153 45.4477153,40 46,40 C46.5522847,40 47,40.4477153 47,41 C47,41.016 46.992,41.029 46.991,41.044 L46.991,43.155 C46.991,45.2735643 45.2735643,46.991 43.155,46.991 L17.838,46.991 C16.8204563,46.9915306 15.8443924,46.5877532 15.124599,45.8685224 C14.4048056,45.1492917 14.0002651,44.1735438 14,43.156 L14,31.991 L13,31.991 L15,28.991 L17,31.991 Z" id="black-lines-f" fill="#333333"></path>
                            <path d="M26,37 L30.939,37 C31.9955738,37.0551938 33.0384606,36.7412673 33.889,36.112 C34.5961294,35.5744822 35.0046951,34.7320941 34.989,33.844 C34.9945538,33.1225376 34.7318982,32.4247361 34.252,31.886 C33.7524197,31.3122483 33.0603091,30.9409412 32.306,30.842 C33.906,30.4166667 34.706,29.5313333 34.706,28.186 C34.7245398,27.306405 34.3381985,26.4669974 33.658,25.909 C32.8154629,25.2628981 31.7677136,24.9432457 30.708,25.009 L26,25.009 L26,37 Z M30.531,26.547 C31.0894085,26.5133722 31.6412987,26.6816011 32.086,27.021 C32.4643734,27.3486066 32.670912,27.8321281 32.646,28.332 C32.6715885,28.8288285 32.4646197,29.3092919 32.086,29.632 C31.6390381,29.9662439 31.0881196,30.1313423 30.531,30.098 L28.029,30.098 L28.029,26.548 L30.534,26.548 L30.531,26.547 Z M28.026,31.636 L30.691,31.636 C31.2870862,31.6063307 31.8738053,31.7931432 32.343,32.162 C32.7575602,32.5124261 32.9871066,33.0346257 32.965,33.577 C32.9927286,34.1053167 32.7767734,34.6171968 32.379,34.966 C31.918091,35.322516 31.3437011,35.5001258 30.762,35.466 L28.029,35.466 L28.029,31.637 L28.026,31.636 Z" id="b-f" fill="#FFFFFF"></path>
                        </g>
                    </g>
                </g>
            </g>
        </g>
    </g>
</svg>